<mxfile host="app.diagrams.net" modified="2023-06-11T13:07:10.020Z" agent="Mozilla/5.0 (Windows NT 10.0; Win64; x64) AppleWebKit/537.36 (KHTML, like Gecko) Chrome/114.0.0.0 Safari/537.36" etag="KKH2NVYh0B_52L56huWr" version="21.3.8">
  <diagram name="Page-1" id="e7e014a7-5840-1c2e-5031-d8a46d1fe8dd">
    <mxGraphModel dx="1434" dy="880" grid="1" gridSize="10" guides="1" tooltips="1" connect="1" arrows="1" fold="1" page="1" pageScale="1" pageWidth="1169" pageHeight="826" background="none" math="0" shadow="0">
      <root>
        <mxCell id="0" />
        <mxCell id="1" parent="0" />
        <mxCell id="hc-i7ScEps4V3ea0Qcry-46" style="edgeStyle=orthogonalEdgeStyle;rounded=0;orthogonalLoop=1;jettySize=auto;html=1;" edge="1" parent="1" source="hc-i7ScEps4V3ea0Qcry-49" target="hc-i7ScEps4V3ea0Qcry-43">
          <mxGeometry relative="1" as="geometry" />
        </mxCell>
        <mxCell id="hc-i7ScEps4V3ea0Qcry-41" value="Waiting" style="rounded=0;whiteSpace=wrap;html=1;" vertex="1" parent="1">
          <mxGeometry x="270" y="140" width="190" height="80" as="geometry" />
        </mxCell>
        <mxCell id="hc-i7ScEps4V3ea0Qcry-53" style="edgeStyle=orthogonalEdgeStyle;rounded=0;orthogonalLoop=1;jettySize=auto;html=1;entryX=-0.021;entryY=0.675;entryDx=0;entryDy=0;entryPerimeter=0;" edge="1" parent="1" source="hc-i7ScEps4V3ea0Qcry-42" target="hc-i7ScEps4V3ea0Qcry-41">
          <mxGeometry relative="1" as="geometry">
            <mxPoint x="120" y="200" as="targetPoint" />
            <Array as="points">
              <mxPoint x="160" y="680" />
              <mxPoint x="160" y="194" />
            </Array>
          </mxGeometry>
        </mxCell>
        <mxCell id="hc-i7ScEps4V3ea0Qcry-42" value="Returning" style="rounded=0;whiteSpace=wrap;html=1;" vertex="1" parent="1">
          <mxGeometry x="270" y="640" width="190" height="80" as="geometry" />
        </mxCell>
        <mxCell id="hc-i7ScEps4V3ea0Qcry-47" style="edgeStyle=orthogonalEdgeStyle;rounded=0;orthogonalLoop=1;jettySize=auto;html=1;" edge="1" parent="1" source="hc-i7ScEps4V3ea0Qcry-51" target="hc-i7ScEps4V3ea0Qcry-44">
          <mxGeometry relative="1" as="geometry" />
        </mxCell>
        <mxCell id="hc-i7ScEps4V3ea0Qcry-43" value="Accepting" style="rounded=0;whiteSpace=wrap;html=1;" vertex="1" parent="1">
          <mxGeometry x="270" y="300" width="190" height="80" as="geometry" />
        </mxCell>
        <mxCell id="hc-i7ScEps4V3ea0Qcry-48" style="edgeStyle=orthogonalEdgeStyle;rounded=0;orthogonalLoop=1;jettySize=auto;html=1;entryX=0.5;entryY=0;entryDx=0;entryDy=0;" edge="1" parent="1" source="hc-i7ScEps4V3ea0Qcry-54" target="hc-i7ScEps4V3ea0Qcry-42">
          <mxGeometry relative="1" as="geometry" />
        </mxCell>
        <mxCell id="hc-i7ScEps4V3ea0Qcry-44" value="Dispensing" style="rounded=0;whiteSpace=wrap;html=1;" vertex="1" parent="1">
          <mxGeometry x="270" y="480" width="190" height="80" as="geometry" />
        </mxCell>
        <mxCell id="hc-i7ScEps4V3ea0Qcry-50" value="" style="edgeStyle=orthogonalEdgeStyle;rounded=0;orthogonalLoop=1;jettySize=auto;html=1;" edge="1" parent="1" source="hc-i7ScEps4V3ea0Qcry-41" target="hc-i7ScEps4V3ea0Qcry-49">
          <mxGeometry relative="1" as="geometry">
            <mxPoint x="365" y="220" as="sourcePoint" />
            <mxPoint x="365" y="300" as="targetPoint" />
          </mxGeometry>
        </mxCell>
        <mxCell id="hc-i7ScEps4V3ea0Qcry-49" value="Amount =(1,2,5)" style="text;html=1;align=center;verticalAlign=middle;resizable=0;points=[];autosize=1;strokeColor=none;fillColor=none;" vertex="1" parent="1">
          <mxGeometry x="310" y="250" width="110" height="30" as="geometry" />
        </mxCell>
        <mxCell id="hc-i7ScEps4V3ea0Qcry-52" value="" style="edgeStyle=orthogonalEdgeStyle;rounded=0;orthogonalLoop=1;jettySize=auto;html=1;" edge="1" parent="1" source="hc-i7ScEps4V3ea0Qcry-43" target="hc-i7ScEps4V3ea0Qcry-51">
          <mxGeometry relative="1" as="geometry">
            <mxPoint x="365" y="380" as="sourcePoint" />
            <mxPoint x="365" y="480" as="targetPoint" />
          </mxGeometry>
        </mxCell>
        <mxCell id="hc-i7ScEps4V3ea0Qcry-51" value="cost=2&lt;br&gt;total_Money &amp;gt;= 2" style="text;html=1;align=center;verticalAlign=middle;resizable=0;points=[];autosize=1;strokeColor=none;fillColor=none;" vertex="1" parent="1">
          <mxGeometry x="305" y="413" width="120" height="40" as="geometry" />
        </mxCell>
        <mxCell id="hc-i7ScEps4V3ea0Qcry-55" value="" style="edgeStyle=orthogonalEdgeStyle;rounded=0;orthogonalLoop=1;jettySize=auto;html=1;entryX=0.5;entryY=0;entryDx=0;entryDy=0;" edge="1" parent="1" source="hc-i7ScEps4V3ea0Qcry-44" target="hc-i7ScEps4V3ea0Qcry-54">
          <mxGeometry relative="1" as="geometry">
            <mxPoint x="365" y="560" as="sourcePoint" />
            <mxPoint x="365" y="640" as="targetPoint" />
          </mxGeometry>
        </mxCell>
        <mxCell id="hc-i7ScEps4V3ea0Qcry-54" value="Return = total_Money - 2" style="text;html=1;align=center;verticalAlign=middle;resizable=0;points=[];autosize=1;strokeColor=none;fillColor=none;" vertex="1" parent="1">
          <mxGeometry x="285" y="590" width="160" height="30" as="geometry" />
        </mxCell>
      </root>
    </mxGraphModel>
  </diagram>
</mxfile>
